HIERARCHY
ROOT Hips
{
	OFFSET 0.000000 0.000000 0.000000
	CHANNELS 6 Xposition Yposition Zposition Zrotation Yrotation Xrotation 
	JOINT LHipJoint
	{
		OFFSET 0.000000 0.000000 0.000000
		CHANNELS 3 Zrotation Yrotation Xrotation
		JOINT LeftUpLeg
		{
			OFFSET 1.363060 -1.794630 0.839290
			CHANNELS 3 Zrotation Yrotation Xrotation
			JOINT LeftLeg
			{
				OFFSET 2.448110 -6.726130 0.000000
				CHANNELS 3 Zrotation Yrotation Xrotation
				JOINT LeftFoot
				{
					OFFSET 2.562200 -7.039590 0.000000
					CHANNELS 3 Zrotation Yrotation Xrotation
					JOINT LeftToeBase
					{
						OFFSET 0.157640 -0.433110 2.322550
						CHANNELS 3 Zrotation Yrotation Xrotation
						End Site
						{
							OFFSET 0.000000 0.000000 0.000000
						}
					}
				}
			}
		}
	}
	JOINT RHipJoint
	{
		OFFSET 0.000000 0.000000 0.000000
		CHANNELS 3 Zrotation Yrotation Xrotation
		JOINT RightUpLeg
		{
			OFFSET -1.305520 -1.794630 0.839290
			CHANNELS 3 Zrotation Yrotation Xrotation
			JOINT RightLeg
			{
				OFFSET -2.542530 -6.985550 0.000000
				CHANNELS 3 Zrotation Yrotation Xrotation
				JOINT RightFoot
				{
					OFFSET -2.568260 -7.056230 0.000000
					CHANNELS 3 Zrotation Yrotation Xrotation
					JOINT RightToeBase
					{
						OFFSET -0.164730 -0.452590 2.363150
						CHANNELS 3 Zrotation Yrotation Xrotation
						End Site
						{
							OFFSET 0.000000 0.000000 0.000000
						}
					}
				}
			}
		}
	}
	JOINT LowerBack
	{
		OFFSET 0.000000 0.000000 0.000000
		CHANNELS 3 Zrotation Yrotation Xrotation
		JOINT Spine
		{
			OFFSET 0.028270 2.035590 -0.193380
			CHANNELS 3 Zrotation Yrotation Xrotation
			JOINT Spine1
			{
				OFFSET 0.056720 2.048850 -0.042750
				CHANNELS 3 Zrotation Yrotation Xrotation
				JOINT Neck
				{
					OFFSET 0.000000 0.000000 0.000000
					CHANNELS 3 Zrotation Yrotation Xrotation
					JOINT Neck1
					{
						OFFSET -0.054170 1.746240 0.172020
						CHANNELS 3 Zrotation Yrotation Xrotation
						JOINT Head
						{
							OFFSET 0.104070 1.761360 -0.123970
							CHANNELS 3 Zrotation Yrotation Xrotation
							End Site
							{
								OFFSET 0.000000 0.000000 0.000000
							}
						}
					}
				}
				JOINT LeftShoulder
				{
					OFFSET 0.000000 0.000000 0.000000
					CHANNELS 3 Zrotation Yrotation Xrotation
					JOINT LeftArm
					{
						OFFSET 3.362410 1.200890 -0.311210
						CHANNELS 3 Zrotation Yrotation Xrotation
						JOINT LeftForeArm
						{
							OFFSET 4.983000 -0.000000 -0.000000
							CHANNELS 3 Zrotation Yrotation Xrotation
							JOINT LeftHand
							{
								OFFSET 3.483560 -0.000000 -0.000000
								CHANNELS 3 Zrotation Yrotation Xrotation
								JOINT LeftFingerBase
								{
									OFFSET 0.000000 0.000000 0.000000
									CHANNELS 3 Zrotation Yrotation Xrotation
									JOINT LeftHandIndex1
									{
										OFFSET 0.715260 -0.000000 -0.000000
										CHANNELS 3 Zrotation Yrotation Xrotation
										End Site
										{
											OFFSET 0.000000 0.000000 0.000000
										}
									}
								}
								JOINT LThumb
								{
									OFFSET 0.000000 0.000000 0.000000
									CHANNELS 3 Zrotation Yrotation Xrotation
									End Site
									{
										OFFSET 0.000000 0.000000 0.000000
									}
								}
							}
						}
					}
				}
				JOINT RightShoulder
				{
					OFFSET 0.000000 0.000000 0.000000
					CHANNELS 3 Zrotation Yrotation Xrotation
					JOINT RightArm
					{
						OFFSET -3.136600 1.374050 -0.404650
						CHANNELS 3 Zrotation Yrotation Xrotation
						JOINT RightForeArm
						{
							OFFSET -5.241900 -0.000000 -0.000000
							CHANNELS 3 Zrotation Yrotation Xrotation
							JOINT RightHand
							{
								OFFSET -3.444170 -0.000000 -0.000000
								CHANNELS 3 Zrotation Yrotation Xrotation
								JOINT RightFingerBase
								{
									OFFSET 0.000000 0.000000 0.000000
									CHANNELS 3 Zrotation Yrotation Xrotation
									JOINT RightHandIndex1
									{
										OFFSET -0.622530 -0.000000 -0.000000
										CHANNELS 3 Zrotation Yrotation Xrotation
										End Site
										{
											OFFSET 0.000000 0.000000 0.000000
										}
									}
								}
								JOINT RThumb
								{
									OFFSET 0.000000 0.000000 0.000000
									CHANNELS 3 Zrotation Yrotation Xrotation
									End Site
									{
										OFFSET 0.000000 0.000000 0.000000
									}
								}
							}
						}
					}
				}
			}
		}
	}
}
MOTION
Frames: 12
Frame Time: 0.008333
0.692221 21.163026 -6.053403 -1.372232 -1.647660 7.645679 -2.641177 -1.619831 -0.519377 -12.582950 3.257953 -29.321814 -1.021073 5.413462 13.055348 1.846794 12.147621 34.714789 0.004123 -0.405760 -1.114815 0.491851 1.125607 -0.656826 14.945860 4.960901 -28.210464 -0.214082 -7.695274 19.670935 -0.359379 -12.440363 25.920758 -0.377886 -3.947439 10.929054 0.126549 -1.524810 6.553736 1.570582 -1.786734 -1.661544 2.130916 -1.371233 5.321451 -3.459325 -0.342290 -5.948226 2.026732 0.328243 31.529812 0.149913 0.566793 11.509020 9.297490 5.136233 0.463488 -98.748487 -12.924573 26.828397 5.350826 -12.844064 -0.579890 -0.323662 -0.587621 -6.808528 23.444102 -6.344633 -2.527031 -7.125000 0.000000 0.000000 -2.128356 23.718104 1.092893 -8.128585 -4.155835 0.310108 94.923461 5.985777 14.586759 -7.958954 18.363734 -1.457005 1.001574 0.923630 37.447331 -20.497087 -23.168543 8.944599 7.125000 0.000000 0.000000 9.458274 -55.775374 -2.516963
0.699131 20.912222 -5.815196 -1.360679 -1.780709 7.087731 -2.750111 -1.530158 -0.383157 -12.596608 3.577148 -28.427879 -1.010135 5.394578 12.980438 2.014642 12.507941 35.725168 0.000274 -0.088435 -0.243065 0.576322 1.072658 -0.645483 14.819737 5.017124 -27.436859 -0.134240 -7.483188 19.042074 -0.366871 -12.848744 26.350136 -0.425149 -4.184532 11.596419 0.268873 -1.550197 6.009471 1.559762 -1.827626 -1.649377 1.989437 -1.385838 5.575594 -3.526592 -0.326816 -5.838138 1.994061 0.367041 32.060788 0.180967 0.572419 11.668312 9.271515 5.188349 0.490880 -98.714705 -12.664289 25.303042 5.077187 -12.336926 -0.518340 -0.333596 -0.580684 -5.348038 23.032469 -6.112979 -2.378065 -7.125000 0.000000 0.000000 -2.434675 23.988929 1.235523 -8.126508 -4.208767 0.334906 94.885327 5.583555 14.315406 -7.725790 18.029943 -1.376981 1.011269 0.923114 38.004208 -20.506175 -23.201572 8.960783 7.125000 0.000000 0.000000 9.472584 -55.819364 -2.530944
0.703780 20.634189 -5.573344 -1.322248 -1.920387 6.456542 -2.809184 -1.423291 -0.224464 -12.653218 3.831527 -27.439422 -0.974952 5.450513 13.190908 2.000577 12.418511 35.642382 0.000100 -0.039928 -0.109723 0.631367 1.006409 -0.629480 14.751821 5.015425 -26.634820 -0.114228 -7.404529 18.804501 -0.382379 -13.198594 26.772936 -0.482813 -4.454897 12.360197 0.375751 -1.561228 5.469719 1.543189 -1.851928 -1.644531 1.841473 -1.391367 5.798857 -3.562471 -0.310627 -5.750314 1.980964 0.395127 32.555972 0.210501 0.578397 11.824956 9.247193 5.236739 0.513245 -98.588475 -12.365895 24.009542 4.873334 -11.961784 -0.473925 -0.343386 -0.575577 -4.120081 22.745260 -5.968045 -2.283306 -7.125000 0.000000 0.000000 -2.648995 24.159850 1.334088 -8.127072 -4.260497 0.355295 94.860798 5.135917 14.038147 -7.554628 17.797343 -1.320139 1.017541 0.925419 38.325706 -20.533024 -23.226933 8.982712 7.125000 0.000000 0.000000 9.463510 -55.858297 -2.537400
0.706464 20.331012 -5.329742 -1.253742 -2.076242 5.770257 -2.818737 -1.309487 -0.054287 -12.749805 4.019826 -26.397432 -0.922802 5.567486 13.652168 1.856446 11.831007 34.646521 0.000815 0.157964 0.433946 0.655490 0.934292 -0.608088 14.714935 5.011863 -25.824303 -0.140827 -7.444061 18.928980 -0.445076 -13.289304 27.228759 -0.537931 -4.698456 13.050668 0.434725 -1.559730 4.957166 1.522349 -1.860801 -1.650470 1.702358 -1.389455 5.972421 -3.573981 -0.289809 -5.688157 1.985354 0.420406 32.996060 0.238981 0.587435 11.974680 9.225320 5.280806 0.529205 -98.369646 -12.004393 23.100332 4.749312 -11.744216 -0.447225 -0.352007 -0.573900 -3.354351 22.594935 -5.937673 -2.253062 -7.125000 0.000000 0.000000 -2.759926 24.201712 1.387446 -8.129580 -4.309447 0.369509 94.831610 4.624642 13.840181 -7.454829 17.683724 -1.288360 1.020061 0.931371 38.380121 -20.577377 -23.250736 9.012617 7.125000 0.000000 0.000000 9.433990 -55.898915 -2.538713
0.707621 20.003709 -5.085098 -1.148492 -2.262703 5.040372 -2.775066 -1.198614 0.116139 -12.888896 4.138006 -25.355564 -0.851911 5.763332 14.420791 1.644103 10.630274 32.828181 0.003578 0.379844 1.043646 0.647600 0.861194 -0.582018 14.684112 5.062370 -25.011222 -0.208434 -7.589295 19.387127 -0.565431 -13.062856 27.730086 -0.587989 -4.909170 13.649711 0.436309 -1.543431 4.482887 1.497935 -1.850742 -1.667466 1.582708 -1.378898 6.094201 -3.578105 -0.265546 -5.663599 2.010867 0.444243 33.362931 0.271377 0.598193 12.113572 9.205647 5.320518 0.538081 -98.059656 -11.580076 22.636604 4.709096 -11.695604 -0.439497 -0.356860 -0.576570 -3.160192 22.513939 -5.977854 -2.259851 -7.125000 0.000000 0.000000 -2.818067 24.165633 1.419121 -8.134042 -4.354922 0.376090 94.772803 4.037760 13.823879 -7.436532 17.709220 -1.284701 1.017921 0.941980 38.149113 -20.621335 -23.281265 9.044600 7.125000 0.000000 0.000000 9.407415 -55.946128 -2.542257
0.707309 19.650513 -4.840992 -0.995168 -2.479249 4.283710 -2.652585 -1.104368 0.284075 -13.127564 4.260938 -24.384374 -0.760505 6.078722 15.680906 1.452434 8.119647 29.803463 0.002107 0.275023 0.755586 0.591791 0.797795 -0.550590 14.646834 5.215539 -24.220739 -0.300492 -7.832099 20.213926 -0.844886 -11.906144 28.348977 -1.217763 -6.991485 19.693644 0.371135 -1.510604 4.053585 1.470393 -1.818364 -1.697463 1.490653 -1.358310 6.155522 -3.594214 -0.241048 -5.684199 2.066649 0.462303 33.633778 0.315022 0.606699 12.235088 9.187751 5.354405 0.538647 -97.660599 -11.099678 22.621879 4.755873 -11.822918 -0.452469 -0.355977 -0.583663 -3.556199 22.441261 -6.046434 -2.279004 -7.125000 0.000000 0.000000 -2.870014 24.099559 1.449677 -8.140776 -4.395748 0.373700 94.665356 3.375631 14.019443 -7.498273 17.871895 -1.308946 1.011995 0.955739 37.704705 -20.661310 -23.313326 9.075197 7.125000 0.000000 0.000000 9.385148 -55.993187 -2.546930
0.705540 19.274129 -4.602475 -0.821821 -2.697573 3.516521 -2.446174 -1.012475 0.423705 -13.429336 4.392357 -23.494166 -0.588491 6.606533 17.613853 1.270528 4.623513 25.104237 0.004468 -0.294641 -0.809693 0.459477 0.738146 -0.502158 14.686453 5.450145 -23.488879 -0.423852 -8.196808 21.547716 -1.142219 -9.330030 28.020341 -1.779303 -8.373070 23.863613 0.272893 -1.465942 3.696488 1.442379 -1.768251 -1.743270 1.423597 -1.329759 6.135052 -3.625487 -0.216858 -5.734037 2.155118 0.472456 33.785141 0.370817 0.611796 12.325689 9.172581 5.377752 0.530295 -97.186401 -10.593915 22.914558 4.873824 -12.091065 -0.483817 -0.349444 -0.593380 -4.336778 22.342374 -6.089973 -2.284292 -7.125000 0.000000 0.000000 -2.942380 24.061912 1.488931 -8.149857 -4.429822 0.361601 94.507079 2.646919 14.420050 -7.639091 18.167228 -1.361504 1.003436 0.969646 37.163091 -20.689452 -23.330672 9.094821 7.125000 0.000000 0.000000 9.367397 -56.020905 -2.548346
0.702833 18.887806 -4.376048 -0.658641 -2.894528 2.749436 -2.194673 -0.905787 0.513139 -13.719459 4.515209 -22.699090 -0.274594 7.367836 20.133306 1.071711 1.314760 18.920495 0.028465 -1.059011 -2.911454 0.259056 0.671992 -0.435144 14.820704 5.755727 -22.829341 -0.603621 -8.706807 23.437719 -1.351705 -5.407679 26.135764 -2.093603 -9.058338 25.978031 0.174135 -1.416784 3.453038 1.415474 -1.708955 -1.803076 1.373643 -1.298048 6.025481 -3.648810 -0.192311 -5.829325 2.256426 0.480680 33.869058 0.427504 0.617495 12.416660 9.160701 5.387384 0.512152 -96.671318 -10.136146 23.295116 5.016780 -12.403824 -0.521608 -0.341836 -0.602608 -5.184787 22.291079 -6.129540 -2.293485 -7.125000 0.000000 0.000000 -2.979556 24.025810 1.510258 -8.159601 -4.452603 0.340920 94.331650 1.924152 14.878735 -7.820594 18.521973 -1.428632 0.996137 0.980621 36.699614 -20.726691 -23.360027 9.122792 7.125000 0.000000 0.000000 9.343914 -56.061683 -2.551168
0.698512 18.503855 -4.167879 -0.507979 -3.052588 1.985924 -1.935040 -0.785019 0.554563 -13.957340 4.642099 -22.051390 0.195124 8.305803 23.044094 0.910952 -0.974730 12.089805 0.053404 -1.489960 -4.097939 0.009696 0.591155 -0.367078 15.031745 6.131257 -22.282282 -0.908212 -9.405652 25.926477 -1.350376 -0.773684 21.846260 -1.648984 -8.089244 22.987733 0.069074 -1.369059 3.372707 1.387827 -1.648872 -1.870811 1.338596 -1.267450 5.832154 -3.646281 -0.172715 -6.010696 2.353277 0.485593 33.933326 0.475608 0.623756 12.544562 9.150784 5.381305 0.482772 -96.139255 -9.824296 23.572305 5.140096 -12.669796 -0.553122 -0.338052 -0.608997 -5.831842 22.399930 -6.198420 -2.333546 -7.125000 0.000000 0.000000 -2.896533 23.949953 1.473092 -8.169443 -4.457686 0.313353 94.185843 1.315917 15.243894 -8.001553 18.856787 -1.494566 0.994686 0.985756 36.438211 -20.830937 -23.425372 9.195849 7.125000 0.000000 0.000000 9.262387 -56.153071 -2.549178
0.690933 18.142394 -3.985029 -0.351215 -3.166478 1.238544 -1.699989 -0.667787 0.569430 -14.133291 4.765540 -21.608690 0.767901 9.287059 26.050117 0.918950 -2.349309 5.875013 0.034446 -1.182163 -3.250361 -0.238873 0.496831 -0.328450 15.260573 6.523255 -21.928965 -1.445966 -10.317604 28.941402 -1.149791 2.640887 15.041962 -0.792774 -5.623774 15.711357 -0.081730 -1.327893 3.518570 1.357940 -1.595117 -1.936793 1.329126 -1.241882 5.563993 -3.602470 -0.160919 -6.312562 2.423740 0.490972 34.003258 0.503371 0.632426 12.733455 9.141462 5.356384 0.441607 -95.622945 -9.793253 23.479851 5.187392 -12.776291 -0.561062 -0.344459 -0.609557 -5.962460 22.827265 -6.353624 -2.448934 -7.125000 0.000000 0.000000 -2.574643 23.764025 1.319774 -8.177174 -4.436032 0.282314 94.124674 0.996940 15.293487 -8.115227 19.045757 -1.532386 1.004489 0.983010 36.522174 -21.057245 -23.590397 9.364525 7.125000 0.000000 0.000000 9.091167 -56.375128 -2.550355
0.679896 17.817542 -3.823138 -0.195521 -3.262609 0.594756 -1.500032 -0.576943 0.568059 -14.302251 4.923959 -21.432939 1.356585 10.195643 28.879424 1.070182 -3.366561 0.895824 0.012230 -0.702567 -1.930831 -0.450476 0.415248 -0.316628 15.456512 6.898447 -21.842193 -2.148883 -11.310159 32.124963 -0.918448 3.612859 7.712251 -0.280303 -3.284669 9.083141 -0.272195 -1.292920 3.764617 1.331327 -1.550230 -1.996604 1.355549 -1.223343 5.290053 -3.557871 -0.156687 -6.709872 2.473013 0.500851 34.070029 0.522705 0.640423 12.958380 9.131840 5.318961 0.394619 -95.169003 -10.037289 22.812670 5.148320 -12.706864 -0.542615 -0.362446 -0.603714 -5.428944 23.584151 -6.594531 -2.646305 -7.125000 0.000000 0.000000 -2.008260 23.465647 1.042360 -8.181585 -4.396232 0.251205 94.136114 1.015778 14.970074 -8.135031 19.049350 -1.532130 1.024762 0.973815 36.934991 -21.384627 -23.858069 9.621745 7.125000 0.000000 0.000000 8.854997 -56.727645 -2.558883
0.667044 17.541594 -3.677675 -0.013202 -3.343413 0.121441 -1.332168 -0.524235 0.546343 -14.566184 5.124839 -21.557184 1.929560 11.007867 31.467476 1.247248 -4.018004 -2.790305 0.008282 -0.586642 -1.612053 -0.627234 0.365388 -0.315361 15.555774 7.255180 -22.064494 -2.881541 -12.255790 35.216039 -0.867308 3.862070 1.891005 -0.169885 -2.653696 7.316130 -0.517211 -1.266605 3.992573 1.308697 -1.519844 -2.049947 1.424391 -1.216084 5.059743 -3.526967 -0.154720 -7.149165 2.495575 0.524456 34.107680 0.533167 0.650463 13.179252 9.122503 5.275682 0.347425 -94.809407 -10.490375 21.511839 5.040143 -12.498247 -0.502705 -0.391725 -0.591284 -4.284614 24.654769 -6.956891 -2.950110 -7.125000 0.000000 0.000000 -1.213388 23.011520 0.641726 -8.182565 -4.348136 0.222514 94.195566 1.349193 14.243790 -8.062722 18.877604 -1.496537 1.052316 0.959186 37.652665 -21.747589 -24.191528 9.924028 7.125000 0.000000 0.000000 8.608866 -57.158435 -2.576983
